HIERARCHY
ROOT pelvis
{
	OFFSET 0.003123 -0.351407 0.012037
	CHANNELS 6 Xposition Yposition Zposition Zrotation Yrotation Xrotation 
	JOINT left_hip
	{
		OFFSET 0.058189 -0.092763 -0.026001
		CHANNELS 3 Zrotation Yrotation Xrotation
		JOINT left_knee
		{
			OFFSET 0.054695 -0.378753 -0.009396
			CHANNELS 3 Zrotation Yrotation Xrotation
			JOINT left_ankle
			{
				OFFSET -0.043453 -0.403059 -0.031876
				CHANNELS 3 Zrotation Yrotation Xrotation
				JOINT left_foot
				{
					OFFSET 0.047257 -0.057997 0.118216
					CHANNELS 3 Zrotation Yrotation Xrotation
					End Site
					{
						OFFSET 0.000000 0.000000 0.000000
					}
				}
			}
		}
	}
	JOINT right_hip
	{
		OFFSET -0.063267 -0.103908 -0.021250
		CHANNELS 3 Zrotation Yrotation Xrotation
		JOINT right_knee
		{
			OFFSET -0.044210 -0.362380 -0.016824
			CHANNELS 3 Zrotation Yrotation Xrotation
			JOINT right_ankle
			{
				OFFSET 0.015417 -0.410728 -0.020192
				CHANNELS 3 Zrotation Yrotation Xrotation
				JOINT right_foot
				{
					OFFSET -0.038812 -0.058328 0.119049
					CHANNELS 3 Zrotation Yrotation Xrotation
					End Site
					{
						OFFSET 0.000000 0.000000 0.000000
					}
				}
			}
		}
	}
	JOINT spine_1
	{
		OFFSET -0.002763 0.109891 -0.027618
		CHANNELS 3 Zrotation Yrotation Xrotation
		JOINT spine_2
		{
			OFFSET 0.009448 0.131853 -0.005940
			CHANNELS 3 Zrotation Yrotation Xrotation
			JOINT spine_3
			{
				OFFSET -0.011330 0.052235 0.028447
				CHANNELS 3 Zrotation Yrotation Xrotation
				JOINT neck
				{
					OFFSET -0.012164 0.165167 -0.031615
					CHANNELS 3 Zrotation Yrotation Xrotation
					JOINT head
					{
						OFFSET 0.024783 0.160452 0.020737
						CHANNELS 3 Zrotation Yrotation Xrotation
						End Site
						{
							OFFSET 0.000000 0.000000 0.000000
						}
					}
				}
				JOINT left_collar
				{
					OFFSET 0.046364 0.084944 -0.007220
					CHANNELS 3 Zrotation Yrotation Xrotation
					JOINT left_shoulder
					{
						OFFSET 0.119239 0.057728 -0.015461
						CHANNELS 3 Zrotation Yrotation Xrotation
						JOINT left_elbow
						{
							OFFSET 0.254123 -0.072151 -0.042459
							CHANNELS 3 Zrotation Yrotation Xrotation
							JOINT left_wrist
							{
								OFFSET 0.251987 0.023221 -0.002472
								CHANNELS 3 Zrotation Yrotation Xrotation
								JOINT left_index_1
								{
									OFFSET 0.101902 -0.008688 0.019351
									CHANNELS 3 Zrotation Yrotation Xrotation
									JOINT left_index_2
									{
										OFFSET 0.030149 -0.011154 0.001151
										CHANNELS 3 Zrotation Yrotation Xrotation
										JOINT left_index_3
										{
											OFFSET 0.006504 -0.021577 -0.002433
											CHANNELS 3 Zrotation Yrotation Xrotation
											End Site
											{
												OFFSET 0.000000 0.000000 0.000000
											}
										}
									}
								}
								JOINT left_middle_1
								{
									OFFSET 0.109398 -0.006328 -0.003981
									CHANNELS 3 Zrotation Yrotation Xrotation
									JOINT left_middle_2
									{
										OFFSET 0.026472 -0.015218 -0.004641
										CHANNELS 3 Zrotation Yrotation Xrotation
										JOINT left_middle_3
										{
											OFFSET 0.005022 -0.023347 -0.001911
											CHANNELS 3 Zrotation Yrotation Xrotation
											End Site
											{
												OFFSET 0.000000 0.000000 0.000000
											}
										}
									}
								}
								JOINT left_pinky_1
								{
									OFFSET 0.084047 -0.014539 -0.043750
									CHANNELS 3 Zrotation Yrotation Xrotation
									JOINT left_pinky_2
									{
										OFFSET 0.012124 -0.014448 -0.005375
										CHANNELS 3 Zrotation Yrotation Xrotation
										JOINT left_pinky_3
										{
											OFFSET 0.003798 -0.018853 0.000167
											CHANNELS 3 Zrotation Yrotation Xrotation
											End Site
											{
												OFFSET 0.000000 0.000000 0.000000
											}
										}
									}
								}
								JOINT left_ring_1
								{
									OFFSET 0.097444 -0.009268 -0.027345
									CHANNELS 3 Zrotation Yrotation Xrotation
									JOINT left_ring_2
									{
										OFFSET 0.023561 -0.016057 -0.001895
										CHANNELS 3 Zrotation Yrotation Xrotation
										JOINT left_ring_3
										{
											OFFSET 0.004257 -0.023548 0.000814
											CHANNELS 3 Zrotation Yrotation Xrotation
											End Site
											{
												OFFSET 0.000000 0.000000 0.000000
											}
										}
									}
								}
								JOINT left_thumb_1
								{
									OFFSET 0.040636 -0.017977 0.025611
									CHANNELS 3 Zrotation Yrotation Xrotation
									JOINT left_thumb_2
									{
										OFFSET 0.021637 -0.017639 0.011623
										CHANNELS 3 Zrotation Yrotation Xrotation
										JOINT left_thumb_3
										{
											OFFSET 0.024002 -0.008356 0.006548
											CHANNELS 3 Zrotation Yrotation Xrotation
											End Site
											{
												OFFSET 0.000000 0.000000 0.000000
											}
										}
									}
								}
							}
						}
					}
				}
				JOINT right_collar
				{
					OFFSET -0.047695 0.084339 -0.013400
					CHANNELS 3 Zrotation Yrotation Xrotation
					JOINT right_shoulder
					{
						OFFSET -0.102578 0.053524 -0.012669
						CHANNELS 3 Zrotation Yrotation Xrotation
						JOINT right_elbow
						{
							OFFSET -0.271150 -0.036492 -0.026467
							CHANNELS 3 Zrotation Yrotation Xrotation
							JOINT right_wrist
							{
								OFFSET -0.249267 -0.004533 -0.015325
								CHANNELS 3 Zrotation Yrotation Xrotation
								JOINT right_index_1
								{
									OFFSET -0.099881 -0.011783 0.019600
									CHANNELS 3 Zrotation Yrotation Xrotation
									JOINT right_index_2
									{
										OFFSET -0.030148 -0.011154 0.001151
										CHANNELS 3 Zrotation Yrotation Xrotation
										JOINT right_index_3
										{
											OFFSET -0.006505 -0.021577 -0.002432
											CHANNELS 3 Zrotation Yrotation Xrotation
											End Site
											{
												OFFSET 0.000000 0.000000 0.000000
											}
										}
									}
								}
								JOINT right_middle_1
								{
									OFFSET -0.107376 -0.009422 -0.003734
									CHANNELS 3 Zrotation Yrotation Xrotation
									JOINT right_middle_2
									{
										OFFSET -0.026472 -0.015218 -0.004641
										CHANNELS 3 Zrotation Yrotation Xrotation
										JOINT right_middle_3
										{
											OFFSET -0.005022 -0.023347 -0.001911
											CHANNELS 3 Zrotation Yrotation Xrotation
											End Site
											{
												OFFSET 0.000000 0.000000 0.000000
											}
										}
									}
								}
								JOINT right_pinky_1
								{
									OFFSET -0.082027 -0.017634 -0.043503
									CHANNELS 3 Zrotation Yrotation Xrotation
									JOINT right_pinky_2
									{
										OFFSET -0.012123 -0.014448 -0.005374
										CHANNELS 3 Zrotation Yrotation Xrotation
										JOINT right_pinky_3
										{
											OFFSET -0.003798 -0.018852 0.000167
											CHANNELS 3 Zrotation Yrotation Xrotation
											End Site
											{
												OFFSET 0.000000 0.000000 0.000000
											}
										}
									}
								}
								JOINT right_ring_1
								{
									OFFSET -0.095423 -0.012362 -0.027099
									CHANNELS 3 Zrotation Yrotation Xrotation
									JOINT right_ring_2
									{
										OFFSET -0.023561 -0.016057 -0.001895
										CHANNELS 3 Zrotation Yrotation Xrotation
										JOINT right_ring_3
										{
											OFFSET -0.004257 -0.023548 0.000816
											CHANNELS 3 Zrotation Yrotation Xrotation
											End Site
											{
												OFFSET 0.000000 0.000000 0.000000
											}
										}
									}
								}
								JOINT right_thumb_1
								{
									OFFSET -0.038613 -0.021074 0.025861
									CHANNELS 3 Zrotation Yrotation Xrotation
									JOINT right_thumb_2
									{
										OFFSET -0.021636 -0.017639 0.011623
										CHANNELS 3 Zrotation Yrotation Xrotation
										JOINT right_thumb_3
										{
											OFFSET -0.024004 -0.008353 0.006547
											CHANNELS 3 Zrotation Yrotation Xrotation
											End Site
											{
												OFFSET 0.000000 0.000000 0.000000
											}
										}
									}
								}
							}
						}
					}
				}
			}
		}
	}
}
MOTION
Frames: 4
Frame Time: 0.050000
-0.039311 1.049408 0.100899 0.083603 13.117139 -29.947565 2.773350 2.484695 37.710907 5.172028 -1.429606 6.737637 -13.040486 -0.575768 23.770107 0.000000 0.000000 0.000000 -1.476530 -3.508932 24.683610 -3.094807 0.776059 10.948754 15.992686 12.950578 22.837654 0.000000 0.000000 0.000000 -9.863680 -2.382966 63.227446 10.823357 -8.119621 -30.402179 2.158158 14.611109 2.735467 -1.637786 -4.393063 21.403091 0.000000 0.000000 0.000000 2.981269 -22.732988 10.608612 17.899559 -53.486345 -29.783228 1.798448 -24.692594 1.078364 2.063288 -11.698373 -9.432791 -12.575425 -0.430529 0.394941 0.318905 -2.490672 -9.082407 0.000000 0.000000 0.000000 -14.718162 -5.847728 -4.852538 4.243097 -1.095425 -4.827360 0.000000 0.000000 0.000000 6.460892 -13.607588 -16.420412 -23.327918 -0.255621 0.237681 0.000000 0.000000 0.000000 -10.021027 -5.984524 -4.116977 -12.359684 -2.537921 -7.192096 0.000000 0.000000 0.000000 14.387519 15.610896 8.264794 -16.057031 5.211637 5.151141 0.000000 0.000000 0.000000 5.600691 20.758611 12.611945 -9.137510 48.540968 -7.810976 -22.572059 33.304942 -5.549971 -5.912353 0.204248 -30.846187 9.388822 1.800232 0.372110 17.373513 12.804479 -20.350368 0.000000 0.000000 0.000000 15.211953 12.021271 -5.294014 11.320106 6.863272 -15.147845 0.000000 0.000000 0.000000 -0.867278 18.906927 -25.268178 24.792399 3.570471 -6.077244 0.000000 0.000000 0.000000 16.546602 12.520190 -4.911625 8.631362 8.006553 -16.037483 0.000000 0.000000 0.000000 -15.879417 -12.374492 -0.676270 19.470624 -8.803003 8.608142 0.000000 0.000000 0.000000 
-0.037427 1.050053 0.089020 0.107842 13.127396 -30.049902 2.604365 2.549418 37.709465 5.127204 -1.348420 6.298677 -12.873089 -0.420411 23.675415 0.000000 0.000000 0.000000 -1.744817 -3.299587 23.834123 -2.961250 0.764862 11.259693 16.104733 12.849553 23.164606 0.000000 0.000000 0.000000 -9.580182 -2.452752 62.613723 10.262741 -7.725880 -27.892504 1.656837 13.841601 -0.417508 -1.781521 -4.440376 21.861765 0.000000 0.000000 0.000000 3.496418 -23.218023 10.845299 19.550106 -54.036852 -30.949785 0.661964 -21.562301 1.272445 2.152969 -11.226480 -13.444573 -12.417628 -0.895278 0.376162 0.318942 -2.379546 -9.324885 0.000000 0.000000 0.000000 -12.836979 -6.555947 -4.861568 0.737751 -1.198873 -5.911870 0.000000 0.000000 0.000000 7.663760 -13.364396 -16.949810 -24.983998 -1.071296 -1.325541 0.000000 0.000000 0.000000 -11.211942 -6.815006 -4.503753 -10.009851 -2.933885 -8.336684 0.000000 0.000000 0.000000 13.022876 15.742940 8.089534 -11.401646 4.197805 3.910646 0.000000 0.000000 0.000000 4.166604 21.585028 12.711755 -11.100456 49.320331 -8.780881 -18.907382 27.938977 -3.708242 -4.812194 0.821440 -31.912170 8.018288 2.714069 0.109273 17.577386 13.199304 -20.680397 0.000000 0.000000 0.000000 17.733835 12.672616 -5.207988 8.075140 7.071456 -17.861745 0.000000 0.000000 0.000000 0.320909 20.145879 -26.656582 16.820130 2.401386 -5.290908 0.000000 0.000000 0.000000 17.776220 15.376109 -5.957673 8.772016 7.720749 -15.339278 0.000000 0.000000 0.000000 -17.100626 -11.765438 -1.755583 21.604594 -10.645067 9.952600 0.000000 0.000000 0.000000 
-0.035542 1.050697 0.074501 0.275303 13.427153 -30.584353 2.355545 2.616358 38.166441 5.287319 -1.389952 6.422955 -13.147391 -0.701275 23.738957 0.000000 0.000000 0.000000 -2.341447 -3.107477 23.365424 -2.749503 0.736634 11.567424 16.082087 12.621508 23.458079 0.000000 0.000000 0.000000 -9.655031 -2.572197 63.745140 9.602066 -7.727648 -30.096992 2.465324 14.204912 1.091833 -1.342605 -4.432154 21.200825 0.000000 0.000000 0.000000 4.258527 -23.991321 11.165940 21.386852 -54.532023 -32.492406 0.728781 -18.715402 1.137561 2.027012 -10.874022 -15.067605 -8.446763 -1.829506 -0.088249 -3.505612 -2.443131 -9.622479 0.000000 0.000000 0.000000 -11.353790 -7.350430 -5.093731 2.411945 -1.440330 -7.191707 0.000000 0.000000 0.000000 6.134509 -14.004457 -18.461476 -19.029544 -0.242385 0.167805 0.000000 0.000000 0.000000 -12.323840 -7.619105 -4.882680 -6.572672 -2.657253 -8.709491 0.000000 0.000000 0.000000 15.723307 15.532474 6.296260 -12.778252 3.968599 4.130683 0.000000 0.000000 0.000000 2.515424 21.016635 11.842789 -11.999037 49.707646 -8.968317 -15.565594 23.676984 -2.454722 -5.640506 1.444915 -32.818912 8.732626 3.473240 0.124626 13.417164 11.105614 -19.147408 0.000000 0.000000 0.000000 18.157457 12.990848 -5.099653 12.211467 8.867634 -19.172754 0.000000 0.000000 0.000000 2.240686 20.574420 -26.233431 19.221766 2.523315 -5.298326 0.000000 0.000000 0.000000 19.798020 16.384408 -5.649074 10.702661 10.419109 -19.670054 0.000000 0.000000 0.000000 -18.812470 -11.905600 -2.328931 24.437700 -12.217553 11.500945 0.000000 0.000000 0.000000 
-0.033422 1.051342 0.061302 0.259852 13.055563 -31.117173 2.396285 2.676936 38.848144 5.255827 -1.430647 6.668157 -12.989426 -0.227476 24.187356 0.000000 0.000000 0.000000 -2.504689 -2.994676 22.990498 -2.898621 0.773321 11.755459 16.355838 12.680283 23.806169 0.000000 0.000000 0.000000 -9.523087 -2.508876 63.242558 9.525977 -7.593933 -28.452134 1.466731 14.083011 -1.066171 -1.060187 -4.515851 21.175631 0.000000 0.000000 0.000000 4.007607 -23.451841 10.967219 18.529124 -54.737744 -31.162805 -0.271488 -18.166985 1.288286 2.465034 -10.864677 -15.611472 -9.017938 -1.157496 0.135765 0.639665 -2.919013 -11.809717 0.000000 0.000000 0.000000 -10.569098 -7.279926 -4.978493 1.997523 -1.429149 -7.146168 0.000000 0.000000 0.000000 8.812615 -14.670584 -19.393344 -21.393203 -0.968837 -1.313531 0.000000 0.000000 0.000000 -11.438635 -8.246107 -5.250341 -7.886538 -3.151429 -9.651658 0.000000 0.000000 0.000000 17.601918 15.595942 5.320123 -13.787446 4.143572 4.399609 0.000000 0.000000 0.000000 2.018426 20.886949 11.656779 -10.596222 49.708754 -8.453586 -13.112813 21.269241 -1.787658 -4.430610 1.479642 -32.023094 7.930180 3.353710 0.022768 14.378725 11.040265 -18.939166 0.000000 0.000000 0.000000 19.793207 14.832694 -5.517063 10.893247 9.163008 -21.398807 0.000000 0.000000 0.000000 2.732674 20.203447 -25.780250 16.874946 2.953968 -6.623353 0.000000 0.000000 0.000000 22.962964 18.831318 -5.842410 10.035342 10.529542 -20.853845 0.000000 0.000000 0.000000 -17.632729 -12.953563 -1.106441 19.966635 -10.014652 9.314860 0.000000 0.000000 0.000000 
